<?xml version="1.0" ?><svg xmlns="http://www.w3.org/2000/svg" xmlns:xlink="http://www.w3.org/1999/xlink" version="1.1" viewBox="0 0 512 512" style="enable-background:new 0 0 512 512;" xml:space="preserve"><g id="_x30_2_x2C__student_x2C__school_x2C__avatar_x2C__boy_x2C__avatar_x2C__graduate"><g><g><path d="M371.833,296.926c-14.92-2.487-52.776-8.798-67.723-11.29v-27.865c26.119-16.17,43.557-45.082,43.557-77.993v-6.333     h11.778c17.522,0,31.778-14.255,31.778-31.778s-14.255-31.778-31.778-31.778h-11.778c0-3.431-0.001,12.43,0.003-33.559     c0-23.523-19.142-42.66-42.67-42.66h-2.073C298.415,14.949,281.526,1,261.44,1h-65.33c-29.584,0-53.55,23.959-53.55,53.56     c0,17.639,8.576,33.308,21.773,43.07v12.258h-11.778c-17.522,0-31.778,14.255-31.778,31.778s14.255,31.778,31.778,31.778h11.778     v6.333c0,32.912,17.438,61.823,43.557,77.993v27.865l-67.724,11.29c-36.473,6.079-62.946,37.328-62.946,74.304v27.27     c0,5.523,4.477,10,10,10s10-4.477,10-10v-27.27c0-27.159,19.444-50.111,46.233-54.576l15.143-2.525l40.519,51.955     c3.223,4.133,9.115,5.089,13.486,2.135l6.102-4.125l8.158,22.44L214.732,491H97.22v-52.5c0-5.523-4.477-10-10-10s-10,4.477-10,10     V501c0,5.523,4.477,10,10,10c8.083,0,234.267,0,247.34,0c5.523,0,10-4.477,10-10s-4.477-10-10-10h-37.536l-12.088-103.888     l8.483-23.37l6.033,4.023c4.383,2.922,10.236,1.932,13.435-2.172l40.156-51.522l15.503,2.584     c26.79,4.465,46.234,27.417,46.234,54.576V491h-40.22c-5.523,0-10,4.477-10,10s4.477,10,10,10h50.22c5.523,0,10-4.477,10-10     V371.23C434.78,334.254,408.307,303.005,371.833,296.926z M359.444,129.889c6.494,0,11.778,5.284,11.778,11.778     s-5.284,11.778-11.778,11.778h-11.778v-23.556H359.444z M152.556,153.444c-6.494,0-11.778-5.284-11.778-11.778     s5.284-11.778,11.778-11.778h11.778v23.556H152.556z M184.333,179.778c0-10.259,0-62.753,0-72.989     c3.792,0.855,7.73,1.321,11.776,1.321h22.32c5.523,0,10-4.477,10-10s-4.477-10-10-10h-22.32c-18.5,0-33.55-15.05-33.55-33.55     c0-18.53,15.004-33.56,33.55-33.56h65.33c12.5,0,22.67,10.17,22.67,22.67c0,5.523,4.477,10,10,10H305     c12.5,0,22.67,10.166,22.67,22.66v11.78h-69.24c-5.523,0-10,4.477-10,10s4.477,10,10,10h69.236c0,21.581,0,47.73,0,71.668     c0,39.517-32.149,71.667-71.667,71.667S184.333,219.295,184.333,179.778z M284.11,267.03v22.484L256,313.607l-28.11-24.094     V267.03C245.905,272.847,265.662,272.987,284.11,267.03z M209.14,346.417l-28.099-36.03l33.856-5.644l24.642,21.125     L209.14,346.417z M234.866,491l11.03-95h19.939l11.054,95H234.866z M267.692,376h-23.381l-8.526-23.454l20.283-13.711     l20.221,13.484L267.692,376z M302.821,345.972l-30.279-20.19l24.553-21.039l33.507,5.586L302.821,345.972z"/><path d="M238.778,150.556c0-5.523-4.477-10-10-10h-10.345c-5.523,0-10,4.477-10,10s4.477,10,10,10h10.345     C234.301,160.556,238.778,156.079,238.778,150.556z"/><path d="M283.222,160.556h10.889c5.523,0,10-4.477,10-10s-4.477-10-10-10h-10.889c-5.523,0-10,4.477-10,10     S277.699,160.556,283.222,160.556z"/><path d="M285.262,207.656l0.243-0.298c3.506-4.268,2.888-10.569-1.38-14.074c-4.267-3.506-10.569-2.888-14.074,1.38l-0.215,0.262     c-1.351,1.636-6.342,6.974-13.76,6.974c-0.084-0.002-8.483-0.314-14.103-7.208c-3.49-4.281-9.788-4.922-14.069-1.433     c-4.281,3.489-4.922,9.789-1.433,14.069c9.375,11.501,22.973,14.57,29.529,14.57C271.792,221.9,281.72,211.944,285.262,207.656z"/></g></g></g><g id="Layer_1"/></svg>